<svg width="33" height="33" viewBox="0 0 33 33" fill="none" xmlns="http://www.w3.org/2000/svg">
<g clip-path="url(#clip0_220_730)">
<path d="M0.884703 20.8083V28.7175C0.884703 30.7563 2.51533 32.4085 4.5276 32.4085H12.5265V33.0002H15.2096V23.8255H12.5265V25.0246H8.17049V20.8063H9.05519V18.0879H0V20.8063H0.884703V20.8083Z" fill="#337758"/>
<path d="M0 15.7423H9.05519V13.0238H8.17049V8.27832H12.5265V9.1747H15.2096V0H12.5265V0.894425H4.5276C2.51533 0.894425 0.884703 2.54657 0.884703 4.58539V13.0219H0V15.7403V15.7423Z" fill="#3A7DE8"/>
<path d="M20.2113 25.0265V23.8274H17.5283V33.0021H20.2113V32.4104H28.4724C30.4847 32.4104 32.1153 30.7583 32.1153 28.7194V20.8102H33V18.0918H23.9448V20.8102H24.8295V25.0285H20.2113V25.0265Z" fill="#EF9EE1"/>
<path d="M20.2113 9.1747V8.27832H24.8295V13.0238H23.9448V15.7423H33V13.0238H32.1153V4.58539C32.1153 2.54657 30.4847 0.894425 28.4724 0.894425H20.2113V0H17.5283V9.1747H20.2113Z" fill="#FFBD1E"/>
</g>
<defs>
<clipPath id="clip0_220_730">
<rect width="33" height="33" fill="white"/>
</clipPath>
</defs>
</svg>
