<svg width="48" height="48" viewBox="0 0 48 48" fill="none" xmlns="http://www.w3.org/2000/svg">
<g clip-path="url(#clip0_220_1481)">
<rect x="11" y="2" width="26" height="26" rx="3" stroke="#808080" stroke-width="2"/>
<path d="M14.1374 42.7V39.76H12.7094V38.956H14.1374V36.364H15.0734V42.7H14.1374ZM13.1294 41.068L13.2134 41.848C11.9774 42.1 10.9694 42.136 9.25341 42.136H8.56941V36.892H12.6374V37.684H9.51741V39.076H12.2174V39.844H9.51741V41.344C11.0414 41.344 12.0014 41.296 13.1294 41.068ZM9.91341 44.092V43.3H17.1614V46.888H16.1774V44.092H9.91341ZM16.2134 36.136H17.1614V42.796H16.2134V36.136ZM28.3925 41.536L27.9485 42.352C26.3165 41.98 24.6365 40.828 23.9525 39.244C23.2685 40.816 21.5885 41.968 19.9685 42.352L19.5245 41.536C21.4085 41.164 23.4365 39.544 23.4365 37.708V36.88H24.4685V37.708C24.4685 39.544 26.5085 41.176 28.3925 41.536ZM19.1165 44.632H28.8725V45.448H19.1165V44.632ZM38.7955 41.932V42.724H31.4035V37.06H38.6875V37.852H32.3995V39.448H38.4475V40.228H32.3995V41.932H38.7955ZM30.1435 44.692H39.9115V45.496H30.1435V44.692Z" fill="#808080"/>
<path d="M27.2721 21L26.3361 17.94H21.6561L20.7201 21H17.7861L22.3221 8.094H25.6521L30.2061 21H27.2721ZM24.7521 12.666C24.6921 12.462 24.6141 12.204 24.5181 11.892C24.4221 11.58 24.3261 11.262 24.2301 10.938C24.1341 10.614 24.0561 10.332 23.9961 10.092C23.9361 10.332 23.8521 10.632 23.7441 10.992C23.6481 11.34 23.5521 11.676 23.4561 12C23.3721 12.312 23.3061 12.534 23.2581 12.666L22.3401 15.654H25.6881L24.7521 12.666Z" fill="#808080"/>
</g>
<defs>
<clipPath id="clip0_220_1481">
<rect width="48" height="48" fill="white"/>
</clipPath>
</defs>
</svg>
